<?xml version="1.0" standalone="no"?>
<!DOCTYPE svg PUBLIC "-//W3C//DTD SVG 20010904//EN"
 "http://www.w3.org/TR/2001/REC-SVG-20010904/DTD/svg10.dtd">
<svg version="1.0" xmlns="http://www.w3.org/2000/svg"
 width="642.000000pt" height="642.000000pt" viewBox="0 0 642.000000 642.000000"
 preserveAspectRatio="xMidYMid meet">
<metadata>
Created by potrace 1.11, written by Peter Selinger 2001-2013
</metadata>
<g transform="translate(0.000000,642.000000) scale(0.100000,-0.100000)"
fill="#000000" stroke="none">
<path d="M17 6079 c-9 -5 -17 -19 -17 -30 0 -12 299 -1293 665 -2849 366
-1555 665 -2830 665 -2833 0 -3 7 -13 16 -21 14 -14 105 -16 858 -16 698 0
845 2 855 14 6 7 39 133 73 280 38 159 68 266 74 266 11 0 25 -52 109 -413 16
-66 35 -125 42 -133 21 -21 1695 -21 1712 0 6 7 312 1295 681 2861 625 2660
669 2850 653 2867 -15 17 -57 18 -824 18 l-809 0 -14 -22 c-7 -13 -123 -641
-257 -1395 -156 -880 -248 -1373 -255 -1373 -15 0 -8 -36 -119 590 l-96 545
190 809 c178 757 190 811 174 828 -15 17 -68 18 -1180 18 -784 0 -1171 -3
-1184 -10 -10 -6 -19 -21 -19 -33 0 -12 92 -413 205 -892 l205 -870 -87 -492
c-85 -477 -101 -541 -117 -465 -3 15 -114 637 -247 1382 -184 1041 -244 1358
-256 1368 -22 16 -1668 17 -1696 1z"/>
</g>
</svg>
